{"title":"The  Rundown 2003 HDDVDRip H264 AAC - IceBane","uid":5272394,"size":1771834704,"categoryP":"video","categoryS":"movies","magnet":"?xt=urn:btih:98cd638fcb819b98085867770cafad18f735d5f3&amp;dn=The++Rundown+2003+HDDVDRip+H264+AAC+-+IceBane&amp;tr=udp%3A%2F%2Ftracker.openbittorrent.com%3A80&amp;tr=udp%3A%2F%2Fopen.demonii.com%3A1337&amp;tr=udp%3A%2F%2Ftracker.coppersurfer.tk%3A6969&amp;tr=udp%3A%2F%2Fexodus.desync.com%3A6969","seeders":0,"leechers":1,"uploader":"IceBane","files":-1,"time":1263281856,"description":"The Rundown\n\n\nCast:\n\nDwayne &quot;The Rock&quot; Johnson as Beck\nSeann William Scott as Travis\nRosario Dawson as Mariana\t \nChristopher Walken as Hatcher\nEwen Bremner as Declan\nErnie Reyes Jr. as Manito\n\n\nPlot:\n\nIn order to get out of hock with mobster Billy Walker, restaraunteur-turned-&quot;retrieval expert&quot; Beck has to go down to Brazil and retrieve Billy's ne'er-do-well archaeologist-wannabe son Travis, who is searching for an ancient gold idol called the Gato del Diablo. This idol is prized by not only the local population as the path to their salvation, but by Cornelius Hatcher, slavedriving operator of the Helldorado mining town who oppresses said population in the name of profits, and Hatcher just won't let Beck leave with Travis.\n\n\nGeneral:\n\nComplete name                    : The Rundown.mp4\nFormat                           : MPEG-4\nFormat profile                   : Base Media\nCodec ID                         : isom\nFile size                        : 1.62 GiB\nDuration                         : 1h 44mn\nOverall bit rate                 : 2 225 Kbps\n\n\nVideo:\n\nFormat                           : AVC\nFormat/Info                      : Advanced Video Codec\nFormat profile                   : &lt;a class=&quot;__cf_email__&quot; href=&quot;/cdn-cgi/l/email-protection&quot; data-cfemail=&quot;034b6a646b434f372d33&quot;&gt;[email&amp;#160;protected]&lt;/a&gt;&lt;script cf-hash='f9e31' type=&quot;text/javascript&quot;&gt;\n/* &lt;![CDATA[ */!function(){try{var t=&quot;currentScript&quot;in document?document.currentScript:function(){for(var t=document.getElementsByTagName(&quot;script&quot;),e=t.length;e--;)if(t[e].getAttribute(&quot;cf-hash&quot;))return t[e]}();if(t&amp;&amp;t.previousSibling){var e,r,n,i,c=t.previousSibling,a=c.getAttribute(&quot;data-cfemail&quot;);if(a){for(e=&quot;&quot;,r=parseInt(a.substr(0,2),16),n=2;a.length-n;n+=2)i=parseInt(a.substr(n,2),16)^r,e+=String.fromCharCode(i);e=document.createTextNode(e),c.parentNode.replaceChild(e,c)}}}catch(u){}}();/* ]]&gt; */&lt;/script&gt;\nFormat settings, CABAC           : Yes\nFormat settings, ReFrames        : 5 frames\nCodec ID                         : avc1\nCodec ID/Info                    : Advanced Video Coding\nDuration                         : 1h 44mn\nBit rate mode                    : Variable\nBit rate                         : 1 750 Kbps\nMaximum bit rate                 : 13.1 Mbps\nWidth                            : 1 376 pixels\nHeight                           : 768 pixels\nDisplay aspect ratio             : 16:9\nFrame rate mode                  : Constant\nFrame rate                       : 23.976 fps\nResolution                       : 24 bits\nColorimetry                      : 4:2:0\nScan type                        : Progressive\nBits/(Pixel*Frame)               : 0.069\nStream size                      : 1.27 GiB (79%)\n\n\nAudio:\n\nFormat                           : AAC\nFormat/Info                      : Advanced Audio Codec\nFormat version                   : Version 4\nFormat profile                   : LC\nFormat settings, SBR             : No\nCodec ID                         : 40\nDuration                         : 1h 44mn\nBit rate mode                    : Variable\nBit rate                         : 473 Kbps\nMaximum bit rate                 : 596 Kbps\nChannel(s)                       : 6 channels\nChannel positions                : Front: L C R, Rear: L R, LFE\nSampling rate                    : 48.0 KHz\nResolution                       : 16 bits\nStream size                      : 352 MiB (21%)\n\n\n\n\nPlease Seed and Say Thanks if you like this.\n\nIceBane","torrent":{"xt":"urn:btih:98cd638fcb819b98085867770cafad18f735d5f3","amp;dn":"The++Rundown+2003+HDDVDRip+H264+AAC+-+IceBane","amp;tr":["udp%3A%2F%2Ftracker.openbittorrent.com%3A80","udp%3A%2F%2Fopen.demonii.com%3A1337","udp%3A%2F%2Ftracker.coppersurfer.tk%3A6969","udp%3A%2F%2Fexodus.desync.com%3A6969"],"infoHash":"98cd638fcb819b98085867770cafad18f735d5f3","infoHashBuffer":{"type":"Buffer","data":[152,205,99,143,203,129,155,152,8,88,103,119,12,175,173,24,247,53,213,243]},"announce":[],"urlList":[]}}